<?xml version="1.0" standalone="no"?>
<!DOCTYPE svg PUBLIC "-//W3C//DTD SVG 20010904//EN"
 "http://www.w3.org/TR/2001/REC-SVG-20010904/DTD/svg10.dtd">
<svg version="1.0" xmlns="http://www.w3.org/2000/svg"
 width="32.000000pt" height="32.000000pt" viewBox="0 0 32.000000 32.000000"
 preserveAspectRatio="xMidYMid meet">

<g transform="translate(0.000000,32.000000) scale(0.100000,-0.100000)"
fill="#000000" stroke="none">
<path d="M90 298 c-83 -42 -115 -157 -63 -226 38 -51 70 -67 133 -67 63 0 95
16 133 67 52 69 20 184 -63 226 -24 12 -56 22 -70 22 -14 0 -46 -10 -70 -22z
m50 -85 c0 9 5 17 10 17 15 0 12 -60 -2 -65 -7 -3 -26 -1 -43 4 l-30 9 29 1
30 1 -27 28 c-37 38 -34 53 3 17 23 -22 30 -25 30 -12z m110 29 c0 -5 -12 -19
-26 -33 l-26 -24 24 -6 c18 -6 15 -7 -14 -8 -38 -1 -38 -1 -37 37 1 35 2 36 8
7 l6 -29 25 31 c25 31 40 41 40 25z m-90 -127 c0 -19 -4 -35 -10 -35 -5 0 -10
10 -10 22 0 21 -1 21 -28 -5 -41 -39 -52 -33 -13 7 33 34 33 34 10 39 -16 3
-12 5 14 6 36 1 37 0 37 -34z m61 28 c-23 -5 -23 -5 10 -39 39 -40 28 -46 -13
-7 -27 26 -28 26 -28 5 0 -12 -4 -22 -10 -22 -5 0 -10 16 -10 35 0 34 1 35 38
34 25 -1 29 -3 13 -6z"/>
</g>
</svg>
